<svg xmlns="http://www.w3.org/2000/svg" viewBox="0 0 243.57 243.78"><g id="Layer_2" data-name="Layer 2"><g id="Layer_2-2" data-name="Layer 2"><path d="M52.45,0C67.56.34,80.62,5.69,90.72,17c4.18,4.66,8.06,5.73,14.28,4.66C161.05,11.94,214,50.55,222.42,107c.71,4.78,1.18,10-3.4,13.15-4.87,3.41-10,1.64-14.66-.94a18.76,18.76,0,0,1-9.88-13.52c-6.24-30.14-32-53.8-62.34-57.69C100,43.85,70.2,59.13,55.63,87.06c-1.24,2.38-.59,3.59,1.07,5.24Q88.89,124.36,121,156.52c4.43,4.42,7.65,9.45,7.77,16,.11,5.88-3,11-8,13-5.37,2.14-9.44-.23-13.17-4q-45.81-45.87-91.7-91.67c-15.5-15.46-20.1-38-11.68-58A52.25,52.25,0,0,1,52.45,0Zm-18,69.35c13-21,31.24-35.73,54.39-44.65-6,3.17-10.3,7.45-17.63,8.86-1.89.37-8.59-4.38-10.39-4.94a25.8,25.8,0,0,0-20.64,1.73C25.82,38,22.62,59.23,34.41,69.35Z"/><path d="M243.57,192.42c-1.14,20.73-10.8,37.57-31.36,46.46-20.71,9-40.35,5.65-56.76-9.89-6.26-5.93-11.42-7.9-20.27-6.67C81.69,229.78,32.56,194.24,21.9,141.26a45.44,45.44,0,0,1-1-10.38c.21-6.53,4.35-9.85,10.82-9.12,7.1.8,15.74,7.38,17.28,15.55,5.7,30.16,31.62,54.05,62.23,58.2,32,4.33,62.45-11.31,76.78-39.28,1.33-2.61.13-3.68-1.38-5.19q-31.74-31.68-63.44-63.39c-3.71-3.71-7-7.72-8-13a18.74,18.74,0,0,1-.26-6.15c.81-5,3.36-9,8.41-10.7s8.78.36,12.19,3.81c14.64,14.82,29.24,29.69,44,44.42,16.11,16.11,32.38,32,48.53,48.11C238.27,164.28,243.14,176.76,243.57,192.42ZM209,174.12a103.55,103.55,0,0,1-23.56,27c-9.3,7.52-19.72,13-30.78,17.7,7.78-6.79,11.29-10,18.61-11.41,1.9-.36,5.81,5.37,9.39,7.52,5.78,3.39,15.59,1.72,22.61-3C218.11,203.36,220.15,183.63,209,174.12Z"/></g></g></svg>