<svg xmlns="http://www.w3.org/2000/svg" xmlns:xlink="http://www.w3.org/1999/xlink" viewBox="0 0 922.54 286.75"><defs><style>.cls-1{fill:url(#linear-gradient);}.cls-2{fill:#fff;}.cls-3{fill:url(#linear-gradient-2);}</style><linearGradient id="linear-gradient" x1="12.19" y1="258.09" x2="212.26" y2="258.09" gradientUnits="userSpaceOnUse"><stop offset="0" stop-color="#f5e8ba"/><stop offset="1" stop-color="#ebd78c"/></linearGradient><linearGradient id="linear-gradient-2" y1="108.32" x2="212.26" y2="108.32" gradientUnits="userSpaceOnUse"><stop offset="0" stop-color="#299c75"/><stop offset="1" stop-color="#e9d48b"/></linearGradient></defs><g id="Layer_2" data-name="Layer 2"><g id="Layer_2-2" data-name="Layer 2"><path class="cls-1" d="M42,278.18,12.19,250.7c17.71-19.89,41-22.9,66.36-18.82,9.6,1.55,19,4.36,28.28,7.22,26.7,8.26,52.4,9.69,76.57-9.66l28.86,29.72c-29,26.59-62.83,31.83-100.11,24.68a311.52,311.52,0,0,1-36.1-9.26C54.29,267.62,42.67,276.87,42,278.18Z"/><path class="cls-2" d="M245.78,265.65l8.51-.83a10.36,10.36,0,0,0,3.12,6.29,9.43,9.43,0,0,0,6.34,2c2.82,0,4.94-.59,6.37-1.79a5.3,5.3,0,0,0,2.14-4.18,3.94,3.94,0,0,0-.9-2.61,7.17,7.17,0,0,0-3.15-1.88c-1-.36-3.36-1-7-1.89q-7-1.74-9.87-4.29a11.27,11.27,0,0,1-4-8.72,11.15,11.15,0,0,1,1.87-6.19,11.81,11.81,0,0,1,5.41-4.39,21.8,21.8,0,0,1,8.53-1.51q8.16,0,12.28,3.58a12.63,12.63,0,0,1,4.33,9.55l-8.75.38a7.41,7.41,0,0,0-2.41-4.8,8.79,8.79,0,0,0-5.54-1.47,10,10,0,0,0-6,1.57,3.15,3.15,0,0,0-1.39,2.69,3.31,3.31,0,0,0,1.3,2.63c1.1.93,3.78,1.89,8,2.9a41.75,41.75,0,0,1,9.44,3.12,12.13,12.13,0,0,1,4.79,4.4,12.89,12.89,0,0,1,1.73,6.9,12.76,12.76,0,0,1-2.07,7,12.36,12.36,0,0,1-5.85,4.83,24.41,24.41,0,0,1-9.43,1.58q-8.22,0-12.62-3.8T245.78,265.65Z"/><path class="cls-2" d="M318.37,279.74V236.41h8.75v43.33Z"/><path class="cls-2" d="M385.88,261.81v-7.3h18.86v19.26a23.61,23.61,0,0,1-8,4.69,28.94,28.94,0,0,1-10.56,2,23.77,23.77,0,0,1-11.86-2.85,18.08,18.08,0,0,1-7.59-8.16,26.25,26.25,0,0,1-2.54-11.54,25,25,0,0,1,2.83-12,19.12,19.12,0,0,1,8.31-8.07,22.4,22.4,0,0,1,10.37-2.16q8.07,0,12.61,3.39a15.25,15.25,0,0,1,5.84,9.35L395.49,250a9.18,9.18,0,0,0-3.44-5,10.44,10.44,0,0,0-6.32-1.85,11.81,11.81,0,0,0-9.11,3.64q-3.39,3.63-3.39,10.79,0,7.71,3.43,11.57a11.46,11.46,0,0,0,9,3.85,15,15,0,0,0,5.51-1.07,19.08,19.08,0,0,0,4.74-2.62v-7.5Z"/><path class="cls-2" d="M443.17,279.74V236.41h8.51l17.73,28.94V236.41h8.13v43.33h-8.78l-17.47-28.25v28.25Z"/><path class="cls-2" d="M556.13,279.74h-9.51l-3.79-9.84H525.51l-3.57,9.84h-9.28l16.87-43.33h9.25ZM540,262.6l-6-16.08L528.2,262.6Z"/><path class="cls-2" d="M596.3,279.74v-36H583.45v-7.33h34.43v7.33H605.05v36Z"/><path class="cls-2" d="M653.73,236.41h8.75v23.47a47.86,47.86,0,0,0,.33,7.24,7,7,0,0,0,2.67,4.27,9.29,9.29,0,0,0,5.78,1.61,8.8,8.8,0,0,0,5.62-1.52,6,6,0,0,0,2.27-3.74,48,48,0,0,0,.39-7.36v-24h8.75v22.76a58.81,58.81,0,0,1-.71,11,12.24,12.24,0,0,1-2.62,5.44,13.32,13.32,0,0,1-5.1,3.53,22.26,22.26,0,0,1-8.33,1.31q-6.21,0-9.42-1.43a13.72,13.72,0,0,1-5.07-3.72,12,12,0,0,1-2.45-4.81,52.66,52.66,0,0,1-.86-11Z"/><path class="cls-2" d="M727.81,279.74V236.41h18.41q6.94,0,10.1,1.17a10,10,0,0,1,5,4.15,12.42,12.42,0,0,1,1.9,6.83,11.6,11.6,0,0,1-2.87,8.06q-2.86,3.17-8.57,4a20.3,20.3,0,0,1,4.68,3.64,49.47,49.47,0,0,1,5,7l5.29,8.45H756.3L750,270.32a59.07,59.07,0,0,0-4.61-6.37,6.67,6.67,0,0,0-2.63-1.81,14.58,14.58,0,0,0-4.4-.48h-1.77v18.08Zm8.75-25H743q6.3,0,7.86-.53a4.7,4.7,0,0,0,2.45-1.84,5.56,5.56,0,0,0,.89-3.25,5.19,5.19,0,0,0-1.17-3.53,5.32,5.32,0,0,0-3.29-1.7q-1.07-.15-6.39-.15h-6.82Z"/><path class="cls-2" d="M801.76,279.74V236.41h32.13v7.33H810.51v9.61h21.75v7.3H810.51v11.79h24.21v7.3Z"/><path class="cls-2" d="M870.19,265.65l8.51-.83a10.36,10.36,0,0,0,3.12,6.29,9.42,9.42,0,0,0,6.34,2c2.81,0,4.94-.59,6.37-1.79a5.3,5.3,0,0,0,2.14-4.18,3.94,3.94,0,0,0-.9-2.61,7.17,7.17,0,0,0-3.15-1.88c-1-.36-3.36-1-7-1.89q-7-1.74-9.88-4.29a11.37,11.37,0,0,1-2.11-14.91,11.76,11.76,0,0,1,5.41-4.39,21.76,21.76,0,0,1,8.53-1.51q8.14,0,12.28,3.58a12.63,12.63,0,0,1,4.33,9.55l-8.75.38a7.46,7.46,0,0,0-2.41-4.8,8.79,8.79,0,0,0-5.54-1.47,10,10,0,0,0-6,1.57,3.15,3.15,0,0,0-1.39,2.69,3.31,3.31,0,0,0,1.3,2.63c1.1.93,3.78,1.89,8,2.9a41.92,41.92,0,0,1,9.44,3.12,12.13,12.13,0,0,1,4.79,4.4,12.89,12.89,0,0,1,1.73,6.9,12.76,12.76,0,0,1-2.07,7,12.36,12.36,0,0,1-5.85,4.83,24.48,24.48,0,0,1-9.43,1.58q-8.22,0-12.62-3.8T870.19,265.65Z"/><path class="cls-3" d="M2,124.35C-9.63,58.31,29.91,8.29,101.2,8.29c58.86,0,100.27,34.27,109,84,11.65,66-27.89,116.06-99.18,116.06C52.2,208.36,10.79,174.09,2,124.35ZM165.36,94.78c-5.06-28.73-27.31-48.35-61.3-48.35C60.4,46.43,39.68,81,46.9,121.87c5.06,28.73,27.31,48.35,61.3,48.35C151.86,170.22,172.58,135.68,165.36,94.78Z"/><path class="cls-2" d="M403.17,120.76c8.82,50-20.95,86.49-67.09,86.49-22.94,0-41.76-8-54-24.31l-.52,22.1h-40.9L245.37,0h43.11l-1.64,69.09c9.68-9.4,23.07-14.93,40.2-14.93C361.59,54.16,395.72,78.48,403.17,120.76Zm-43.32,1.93c-3.56-20.17-18.23-32.88-39.78-32.88-25.15,0-39.88,19.9-34.76,48.91,3.55,20.18,17.95,32.89,39.51,32.89C350.24,171.61,365,151.71,359.85,122.69Z"/><path class="cls-2" d="M585.53,56.37,582.17,205H541.28l.18-14.64c-10,10.77-24.39,16.85-42.62,16.85-34.55,0-68.4-24.31-75.86-66.59-8.82-50,20.95-86.5,66.82-86.5,21.56,0,39.91,6.91,52.31,22.39l.31-20.18Zm-44.68,66.32c-3.56-20.17-18.23-32.88-39.79-32.88-25.42,0-40.15,19.9-35,48.91,3.55,20.18,18.23,32.89,39.78,32.89C531.24,171.61,546,151.71,540.85,122.69Z"/><path class="cls-2" d="M610.23,191.78l11.08-31.23c14.22,8.57,35.37,14.1,54.16,14.1,20.17,0,28-5.53,26.48-14.37-3.71-21-79.39-3.6-88.26-53.89-5.9-33.44,22-52.23,65.4-52.23,20.73,0,42.28,4.7,57.18,12.44l-9.92,31.5C711,89.53,694.24,86.77,680.42,86.77c-19.9,0-27.57,6.63-26.16,14.65,3.85,21.83,79.26,4.42,88,53.88,6,34-22.89,51.95-65.72,51.95C650.27,207.25,624.23,200.62,610.23,191.78Z"/><path class="cls-2" d="M921.28,105a80.56,80.56,0,0,1,1.18,17.68L920.4,205H877.3l2-79.58a45.26,45.26,0,0,0-.7-10.23C875.91,100,866.11,91.47,849,91.47c-21.83,0-34.88,12.16-35.55,38.13L811.81,205H768.7L773.44,0h43.11l-1.49,69.91c11.09-10.77,26.24-15.75,43.09-15.75C890.49,54.16,915.43,71.85,921.28,105Z"/></g></g></svg>