<svg xmlns="http://www.w3.org/2000/svg" viewBox="0 0 879.28 235.79"><defs><style>.cls-1{stroke:#000;stroke-miterlimit:10;stroke-width:2px;}</style></defs><g id="Layer_2" data-name="Layer 2"><g id="Layer_2-2" data-name="Layer 2"><path class="cls-1" d="M270.23,62.64c0-21.78,13.68-37.69,35.56-37.69s35.56,15.91,35.56,37.69-13.77,37.79-35.56,37.79S270.23,84.43,270.23,62.64Zm59.07,0c0-14.59-6.89-27.35-23.51-27.35s-23.6,12.76-23.6,27.35,7,27.46,23.6,27.46S329.3,77.33,329.3,62.64Z"/><path class="cls-1" d="M394.35,59.81V60c7.6,1.32,14.08,6.89,14.08,17.73,0,14-9.62,21.17-24.62,21.17H351V26.47h31.1c14.9,0,23.51,6.59,23.51,18.24C405.6,53.63,400.33,57.78,394.35,59.81Zm-12.66-3.35c8.61,0,11.85-3.44,11.85-9.82s-4-9.93-11.14-9.93H363.05V56.46ZM363.05,88.68H382.9c10.34,0,13.48-4.86,13.48-11.65,0-7.4-4.56-11.55-12.16-11.55H363.05Z"/><path class="cls-1" d="M429.72,81.79l-5.88,17.12H411.58l26.65-72.44h12.66l26.55,72.44H465.18L459.3,81.79Zm26.34-10L444.71,37.52h-.2L433.06,71.76Z"/><path class="cls-1" d="M537.83,79.26c0,11.55-8.71,21.17-27,21.17-17.73,0-31.21-9.22-31.92-25.63H491c.61,9.22,6.89,15.3,19.86,15.3,10.74,0,14.89-4.76,14.89-10.33,0-8.62-6.18-10.24-20.46-13.78C494,63.15,481.7,58.79,481.7,45c0-12.86,9.93-20.06,25.73-20.06s27.46,8.31,28.47,23.21h-12c-1.12-8.41-6.38-12.87-16.42-12.87-8.61,0-13.77,3.24-13.77,8.61,0,7.9,6.78,9.32,16.92,11.85C526.08,59.7,537.83,63.05,537.83,79.26Z"/><path class="cls-1" d="M559.31,26.47v30h34.25v-30h12.05V98.91H593.56V66.8H559.31V98.91h-12V26.47Z"/><path class="cls-1" d="M327.68,189.66c0,11.55-8.71,21.17-26.95,21.17-17.73,0-31.21-9.22-31.92-25.63h12.06c.61,9.22,6.89,15.3,19.86,15.3,10.74,0,14.89-4.77,14.89-10.34,0-8.61-6.18-10.23-20.46-13.78-11.35-2.83-23.61-7.19-23.61-21,0-12.87,9.93-20.06,25.73-20.06s27.46,8.31,28.47,23.2H313.7c-1.12-8.41-6.39-12.86-16.42-12.86-8.61,0-13.78,3.24-13.78,8.61,0,7.9,6.79,9.32,16.92,11.85C315.93,170.1,327.68,173.45,327.68,189.66Z"/><path class="cls-1" d="M349.37,136.87v72.44H337.31V136.87Z"/><path class="cls-1" d="M393.54,145.69c-15.5,0-21.88,13.77-21.88,27.35s5,27.46,21.47,27.46c11.45,0,20.57-7.91,20.67-19.46H393.34v-9.72h32.72v38h-8.3l-2.64-9.93h-.2c-4.87,7.3-11.65,11.45-22.6,11.45-21,0-32.72-15.91-32.72-37.79s13.17-37.69,34-37.69c18.85,0,29,10.23,31.21,24.11H412.79C411,150.85,404.28,145.69,393.54,145.69Z"/><path class="cls-1" d="M437.32,136.87h13.47l32.62,54.41h.21V136.87h12.05v72.44H482.3l-32.72-54.2h-.21v54.2H437.32Z"/><path class="cls-1" d="M520.3,192.19l-5.87,17.12H502.17l26.64-72.44h12.67L568,209.31H555.76l-5.87-17.12Zm26.34-10L535.3,147.91h-.21l-11.45,34.25Z"/><path class="cls-1" d="M584.85,147.1H561.64V136.87H620V147.1H596.9v62.21h-12Z"/><path class="cls-1" d="M655.77,210.83c-20.16,0-28.57-10.43-28.57-26.24V136.87h12.06v47.72c0,10.94,5.47,15.91,16.51,15.91s16.62-5,16.62-15.91V136.87h12v47.72C684.34,200.4,675.93,210.83,655.77,210.83Z"/><path class="cls-1" d="M695.8,136.87h30.9c14.9,0,24.52,7.6,24.52,20.77,0,10.13-5.17,16-13.47,18v.21c16.71,3.14,10.63,31.5,14.48,32.72v.71H739.57c-3.34-3,3.44-28-14-28H707.86v28H695.8ZM707.86,171h16.31c7.4,0,15.1-1.41,15.1-11.95s-7.7-12-15.1-12H707.86Z"/><path class="cls-1" d="M808.57,166.76v10.33H773.21v22h41.34v10.23H761.16V136.87h52.38V147.1H773.21v19.66Z"/><path class="cls-1" d="M878.28,189.66c0,11.55-8.71,21.17-26.95,21.17-17.73,0-31.2-9.22-31.91-25.63h12.05c.61,9.22,6.89,15.3,19.86,15.3,10.74,0,14.89-4.77,14.89-10.34,0-8.61-6.18-10.23-20.46-13.78-11.35-2.83-23.61-7.19-23.61-21,0-12.87,9.93-20.06,25.74-20.06s27.45,8.31,28.47,23.2H864.3c-1.11-8.41-6.38-12.86-16.41-12.86-8.61,0-13.78,3.24-13.78,8.61,0,7.9,6.79,9.32,16.92,11.85C866.53,170.1,878.28,173.45,878.28,189.66Z"/><path d="M112.71,178.33c-1.92,0-3.89-1.11-6.38-3.6C81.2,149.57,48.06,116.4,14.62,83.05A48.35,48.35,0,0,1,47.86,0h.51C62.79.32,74.69,5.57,83.7,15.62,87.66,20,91.75,22,97,22a27,27,0,0,0,4.66-.44,98.37,98.37,0,0,1,16.58-1.42,97,97,0,0,1,63.11,23.49,98.13,98.13,0,0,1,33.09,59.94c.74,5,.67,7.6-1.74,9.29a5.92,5.92,0,0,1-3.54,1.15c-2.37,0-5.07-1.32-6.89-2.32a14.8,14.8,0,0,1-7.89-10.83c-6.57-31.7-33.6-56.72-65.75-60.85a86.19,86.19,0,0,0-10.86-.69c-30,0-56,15.66-69.71,41.9-2.79,5.36.54,8.68,1.8,9.93,18.1,18,36.46,36.4,54.22,54.16l10,10c4.48,4.47,6.51,8.55,6.6,13.21.08,4.26-2.08,7.88-5.5,9.24A6.56,6.56,0,0,1,112.71,178.33ZM48.14,19.25A28.92,28.92,0,0,0,19.33,45.51c-1,9.09,2.08,17.43,8.43,22.87a4,4,0,0,0,2.6,1,4.32,4.32,0,0,0,.62,0,4,4,0,0,0,2.79-1.85A102.23,102.23,0,0,1,68.56,33a4,4,0,0,0-1.34-7.37,34.32,34.32,0,0,1-5-2.6,24,24,0,0,0-4.32-2.21A33.06,33.06,0,0,0,48.14,19.25Z"/><path d="M186,235.79c-11.53,0-22.25-4.61-31.85-13.71-6.09-5.76-11.41-8.11-18.38-8.11a37.78,37.78,0,0,0-5.2.39,98.73,98.73,0,0,1-13.61.95,96.71,96.71,0,0,1-61.28-22,99,99,0,0,1-33.91-56.83,41.11,41.11,0,0,1-1-9.46c.12-3.7,1.69-5.35,5.11-5.35a11.13,11.13,0,0,1,1.26.07c5.53.63,12.61,6,13.8,12.32,6,31.74,33,57,65.62,61.42a82.83,82.83,0,0,0,11.11.75c29.71,0,56.44-16.16,69.77-42.17,2.62-5.12-.49-8.22-2-9.71l-.13-.13Q166.77,125.64,148.17,107L121.94,80.82c-3.07-3.07-6-6.51-6.85-10.94a14.54,14.54,0,0,1-.24-4.79c.85-5.29,3.69-6.84,5.76-7.55a6.76,6.76,0,0,1,2.13-.38c1.87,0,3.74,1,5.91,3.22q5.31,5.37,10.61,10.75c10.91,11.07,22.2,22.51,33.39,33.69,9,9,18.12,18,27,26.77q10.78,10.66,21.55,21.35c9.34,9.3,13.9,20.56,14.35,35.43-1.19,20.63-10.93,35-28.95,42.84A51.86,51.86,0,0,1,186,235.79Zm19-69.67a4.46,4.46,0,0,0-.63,0,4,4,0,0,0-2.79,1.87,99,99,0,0,1-32.41,32.86,4,4,0,0,0-.39,6.5c.61.5,1.43,1.32,2.29,2.19a31.46,31.46,0,0,0,5.52,4.73,19,19,0,0,0,9.58,2.36h0a32.55,32.55,0,0,0,17.32-5.43,29.4,29.4,0,0,0,12.7-22.69c.51-8.55-2.62-16.38-8.59-21.48A4,4,0,0,0,205,166.12Z"/></g></g></svg>